<svg width="33" height="32" viewBox="0 0 33 32" fill="none" xmlns="http://www.w3.org/2000/svg">
<path d="M31.4966 0.931172C30.6962 0.109757 29.5118 -0.196261 28.4073 0.125863L2.65276 7.61524C1.48748 7.93897 0.661543 8.8683 0.439052 10.0489C0.211759 11.2504 1.00568 12.7757 2.04291 13.4135L10.0958 18.3629C10.9217 18.8702 11.9878 18.743 12.6713 18.0537L21.8926 8.77488C22.3568 8.2917 23.1251 8.2917 23.5893 8.77488C24.0535 9.24196 24.0535 9.99895 23.5893 10.4821L14.3519 19.7625C13.6669 20.4503 13.5388 21.5213 14.043 22.3524L18.9634 30.486C19.5397 31.4524 20.5321 32 21.6205 32C21.7486 32 21.8926 32 22.0207 31.9839C23.2692 31.8228 24.2616 30.9692 24.6298 29.7612L32.2649 4.03967C32.601 2.94445 32.2969 1.75259 31.4966 0.931172" fill="#C21DF9"/>
</svg>
