<svg width="40" height="40" viewBox="0 0 40 40" fill="none" xmlns="http://www.w3.org/2000/svg">
<path fill-rule="evenodd" clip-rule="evenodd" d="M19.5649 35.8619C19.742 35.9544 19.9402 36.0015 20.1383 35.9999C20.3364 35.9984 20.5329 35.9497 20.7117 35.8556L26.4203 32.8039C28.0392 31.941 29.3069 30.9761 30.2959 29.8527C32.4463 27.4051 33.6205 24.2813 33.5996 21.0602L33.5319 10.4352C33.5255 9.21138 32.7217 8.11938 31.533 7.72243L20.9131 4.1593C20.2736 3.94279 19.5729 3.94749 18.9447 4.17029L8.36509 7.8605C7.18278 8.27314 6.3935 9.37298 6.39994 10.5983L6.46759 21.2155C6.48853 24.4413 7.70306 27.551 9.88889 29.9735C10.8876 31.0812 12.1665 32.032 13.8031 32.8808L19.5649 35.8619ZM18.0536 23.3743C18.292 23.6034 18.6013 23.7163 18.9106 23.7132C19.2198 23.7116 19.5275 23.5955 19.7627 23.3633L26.0012 17.213C26.47 16.7501 26.4651 16.0064 25.9916 15.5498C25.5164 15.0933 24.7513 15.0964 24.2825 15.5593L18.8929 20.8718L16.6861 18.7505C16.2109 18.294 15.4474 18.2987 14.977 18.7615C14.5083 19.2244 14.5131 19.9681 14.9883 20.4246L18.0536 23.3743Z" fill="#C51EF9"/>
</svg>
