<svg width="40" height="40" viewBox="0 0 40 40" fill="none" xmlns="http://www.w3.org/2000/svg">
<path d="M29.4695 23.7122C29.0551 24.1138 28.8647 24.6946 28.9591 25.2642L30.3815 33.1362C30.5015 33.8034 30.2199 34.4786 29.6615 34.8642C29.1143 35.2642 28.3863 35.3122 27.7895 34.9922L20.7031 31.2962C20.4567 31.165 20.1831 31.0946 19.9031 31.0866H19.4695C19.3191 31.109 19.1719 31.157 19.0375 31.2306L11.9495 34.9442C11.5991 35.1202 11.2023 35.1826 10.8135 35.1202C9.86633 34.941 9.23433 34.0386 9.38953 33.0866L10.8135 25.2146C10.9079 24.6402 10.7175 24.0562 10.3031 23.6482L4.52553 18.0482C4.04233 17.5794 3.87433 16.8754 4.09513 16.2402C4.30953 15.6066 4.85673 15.1442 5.51753 15.0402L13.4695 13.8866C14.0743 13.8242 14.6055 13.4562 14.8775 12.9122L18.3815 5.72823C18.4647 5.56823 18.5719 5.42103 18.7015 5.29623L18.8455 5.18423C18.9207 5.10103 19.0071 5.03223 19.1031 4.97623L19.2775 4.91223L19.5495 4.80023H20.2231C20.8247 4.86263 21.3543 5.22263 21.6311 5.76023L25.1815 12.9122C25.4375 13.4354 25.9351 13.7986 26.5095 13.8866L34.4615 15.0402C35.1335 15.1362 35.6951 15.6002 35.9175 16.2402C36.1271 16.8818 35.9463 17.5858 35.4535 18.0482L29.4695 23.7122Z" fill="#C91FF9"/>
</svg>
